<svg width="343" height="80" viewBox="0 0 343 80" fill="none" xmlns="http://www.w3.org/2000/svg">
<path d="M327.586 28.2467L316.14 33.8984C315.518 32.9784 314.707 32.2557 313.707 31.7303C312.699 31.1849 311.551 30.8986 310.264 30.8716C308.989 30.816 307.609 31.0999 306.122 31.7233C304.134 32.5574 302.634 33.6827 301.622 35.0992C300.602 36.4956 300.382 37.8867 300.963 39.2725C301.427 40.3772 302.26 41.1258 303.464 41.5183C304.668 41.9108 306.442 41.8873 308.784 41.4478L317.867 39.6216C322.754 38.6583 326.732 38.7376 329.8 39.8595C332.869 40.9814 335.103 43.2094 336.501 46.5435C337.773 49.5763 337.996 52.6124 337.169 55.6519C336.362 58.683 334.681 61.49 332.128 64.0729C329.585 66.6273 326.306 68.747 322.289 70.432C316.163 73.0016 310.747 73.7735 306.042 72.7477C301.348 71.6933 297.763 69.0874 295.287 64.93L307.633 58.972C308.798 60.6798 310.32 61.7183 312.199 62.0874C314.069 62.4365 316.15 62.1307 318.439 61.1703C320.689 60.2267 322.315 59.0366 323.319 57.6C324.334 56.135 324.561 54.7053 324 53.311C323.491 52.1545 322.599 51.4069 321.323 51.0682C320.039 50.7094 318.308 50.7504 316.131 51.1912L307.447 52.956C302.549 53.9479 298.528 53.7925 295.383 52.4898C292.259 51.1787 289.972 48.7959 288.523 45.3413C287.276 42.3687 287.005 39.4709 287.71 36.6478C288.436 33.8163 290.02 31.2031 292.464 28.8081C294.928 26.4047 298.138 24.3731 302.095 22.7134C307.94 20.2617 313.057 19.5676 317.448 20.631C321.858 21.686 325.238 24.2246 327.586 28.2467Z" fill="black"/>
<path d="M256.435 69.3592L262.949 19.602L276.327 21.3534L275.191 30.035L275.709 30.1029C277.02 27.1334 278.848 25.0003 281.193 23.7037C283.54 22.3855 286.106 21.9087 288.892 22.2735C289.583 22.3639 290.323 22.5047 291.111 22.6956C291.898 22.8866 292.585 23.0973 293.17 23.3276L291.566 35.5726C290.944 35.2934 290.07 35.0033 288.946 34.7023C287.821 34.4013 286.783 34.1886 285.833 34.0642C283.803 33.7984 281.931 34.0037 280.217 34.6799C278.527 35.3373 277.117 36.3827 275.984 37.8161C274.874 39.2522 274.186 40.9853 273.92 43.0154L270.235 71.1658L256.435 69.3592Z" fill="black"/>
<path d="M237.91 71.8844C232.841 72.8631 228.281 72.679 224.227 71.3322C220.191 69.9599 216.824 67.5711 214.126 64.1658C211.423 60.7391 209.57 56.4275 208.567 51.2309C207.588 46.1626 207.713 41.5245 208.941 37.3166C210.169 33.1088 212.362 29.5907 215.521 26.7626C218.701 23.9303 222.707 22.0475 227.54 21.1142C230.791 20.4865 233.918 20.4261 236.922 20.933C239.943 21.4144 242.701 22.4899 245.198 24.1596C247.715 25.8251 249.866 28.1162 251.649 31.0327C253.428 33.9278 254.722 37.4711 255.532 41.6626L256.257 45.4157L214.652 53.4498L213.016 44.9812L241.758 39.4311C241.378 37.4636 240.614 35.8033 239.465 34.4502C238.317 33.097 236.901 32.1393 235.217 31.5771C233.551 30.9894 231.723 30.8875 229.734 31.2716C227.66 31.6722 225.914 32.5085 224.496 33.7805C223.095 35.0271 222.1 36.539 221.512 38.3163C220.919 40.0723 220.8 41.9254 221.155 43.8755L222.709 51.9271C223.18 54.365 224.036 56.3847 225.277 57.9863C226.539 59.5837 228.097 60.7025 229.951 61.3427C231.805 61.9829 233.876 62.0821 236.164 61.6403C237.683 61.3471 239.032 60.8648 240.211 60.1934C241.39 59.5221 242.346 58.672 243.079 57.6431C243.812 56.6143 244.294 55.4342 244.525 54.1031L257.325 52.4965C257.269 55.6571 256.466 58.5628 254.915 61.2137C253.381 63.8391 251.175 66.0841 248.296 67.9487C245.435 69.7879 241.973 71.0997 237.91 71.8844Z" fill="black"/>
<path d="M175.861 56.5269L176.726 39.8547L178.749 39.9557L195.753 21.7345L211.709 22.5316L188.883 46.6444L185.587 46.4797L175.861 56.5269ZM162.545 70.32L165.883 3.49426L179.784 4.18864L176.445 71.0144L162.545 70.32ZM193.87 71.8848L180.212 49.3187L189.969 39.9601L210.152 72.6982L193.87 71.8848Z" fill="black"/>
<path d="M126.108 43.3746L128.693 72.2705L114.831 73.5106L110.36 23.5284L123.571 22.3465L124.36 31.165L124.946 31.1126C125.792 28.1067 127.441 25.6412 129.893 23.7162C132.343 21.7696 135.423 20.6303 139.132 20.2985C142.603 19.988 145.698 20.4765 148.415 21.7641C151.132 23.0518 153.333 25.0416 155.017 27.7337C156.699 30.4041 157.714 33.6809 158.061 37.5641L160.908 69.3887L147.046 70.6288L144.42 41.2772C144.168 38.2165 143.174 35.9 141.437 34.3279C139.698 32.7341 137.44 32.0613 134.663 32.3097C132.798 32.4766 131.185 33.0255 129.825 33.9562C128.487 34.885 127.485 36.1555 126.82 37.7675C126.175 39.3559 125.938 41.2249 126.108 43.3746Z" fill="black"/>
<path d="M78.6145 71.9115C73.661 70.8085 69.6115 68.8022 66.4661 65.8928C63.3466 62.9667 61.2303 59.3939 60.117 55.1741C59.0085 50.9331 59.0129 46.304 60.1301 41.2867C61.2568 36.2269 63.2195 32.0227 66.018 28.674C68.8213 25.3041 72.2537 22.9668 76.3152 21.6622C80.4028 20.341 84.9233 20.2319 89.8768 21.3349C94.8302 22.438 98.8667 24.4525 101.986 27.3785C105.132 30.288 107.259 33.8632 108.367 38.1042C109.48 42.324 109.474 46.9637 108.347 52.0235C107.23 57.0408 105.269 61.2344 102.466 64.6043C99.6676 67.953 96.2246 70.2879 92.137 71.6091C88.0755 72.9138 83.568 73.0146 78.6145 71.9115ZM81.0216 61.4022C83.2751 61.904 85.2986 61.6852 87.0921 60.7458C88.8903 59.785 90.4206 58.2738 91.683 56.2119C92.9667 54.1548 93.9257 51.7019 94.5601 48.8531C95.1945 46.0043 95.3669 43.3762 95.0773 40.9688C94.8091 38.5661 94.0646 36.5483 92.844 34.9153C91.6233 33.2824 89.8862 32.215 87.6327 31.7132C85.3579 31.2067 83.3002 31.429 81.4594 32.3803C79.64 33.3363 78.0884 34.8428 76.8047 36.8999C75.5423 38.9617 74.5939 41.417 73.9596 44.2658C73.3252 47.1146 73.1422 49.7403 73.4104 52.143C73.7 54.5504 74.4657 56.573 75.7076 58.2107C76.9755 59.8318 78.7468 60.8957 81.0216 61.4022Z" fill="black"/>
<path d="M13.5383 75.9364L0.508728 10.3082L26.7856 5.09131C31.6137 4.13275 35.7828 4.04892 39.2929 4.83981C42.8029 5.6307 45.6221 7.13609 47.7504 9.35598C49.8745 11.5545 51.2632 14.2988 51.9163 17.5887C52.4253 20.1523 52.36 22.5079 51.7206 24.6556C51.0769 26.7819 49.9808 28.6427 48.4322 30.238C46.9008 31.8078 45.0431 33.0759 42.859 34.0425L42.9862 34.6834C45.507 34.294 47.9862 34.5345 50.424 35.4051C52.8832 36.2714 55.0296 37.7438 56.8634 39.8223C58.693 41.8794 59.928 44.5209 60.5685 47.7468C61.2598 51.229 61.0117 54.5092 59.8242 57.5872C58.6538 60.6397 56.5485 63.2893 53.5083 65.5361C50.4681 67.7829 46.4913 69.394 41.5777 70.3696L13.5383 75.9364ZM25.1616 61.8377L36.4735 59.5919C40.3403 58.8242 43.0139 57.5273 44.4944 55.7012C45.9707 53.8537 46.4628 51.6909 45.9708 49.2127C45.6103 47.3968 44.8542 45.8815 43.7026 44.6668C42.551 43.4521 41.085 42.6107 39.3044 42.1426C37.5452 41.6703 35.5548 41.6546 33.333 42.0957L21.7006 44.4052L25.1616 61.8377ZM19.8365 35.016L30.123 32.9738C32.0243 32.5963 33.6463 31.9301 34.9889 30.9752C36.3486 29.9946 37.3327 28.8 37.9412 27.3913C38.5711 25.9783 38.7143 24.4066 38.3707 22.6762C37.8999 20.3049 36.6765 18.5604 34.7004 17.4427C32.7456 16.3209 30.2301 16.0653 27.1538 16.6761L16.611 18.7692L19.8365 35.016Z" fill="black"/>
</svg>
