<svg width="113" height="43" viewBox="0 0 113 43" fill="none" xmlns="http://www.w3.org/2000/svg">
<path d="M96.7092 42.712L108.681 15.8306H112.452L100.744 42.712H96.7092ZM101.182 34.117L92.4555 15.8306H97.06L104.383 32.0559L101.182 34.117Z" fill="black"/>
<path d="M79.6534 34.424C77.9578 34.424 76.4083 34.0586 75.005 33.3277C73.631 32.5969 72.5347 31.5298 71.7161 30.1265C70.9268 28.694 70.5321 26.9545 70.5321 24.9081C70.5321 22.8909 70.956 21.1514 71.8038 19.6897C72.6516 18.1987 73.7772 17.0586 75.1804 16.2692C76.6129 15.4799 78.177 15.0852 79.8726 15.0852C81.5683 15.0852 83.0008 15.4799 84.1702 16.2692C85.3395 17.0293 86.2312 17.9356 86.8451 18.9881L86.582 19.6897L86.9767 15.8307H90.748V33.9855H86.6697V29.2495L87.1083 30.3019C86.9913 30.5943 86.7282 30.9743 86.3189 31.4421C85.9389 31.8806 85.4126 32.3338 84.7402 32.8015C84.0971 33.2693 83.3516 33.6639 82.5038 33.9855C81.656 34.2779 80.7058 34.424 79.6534 34.424ZM80.7497 31.0474C81.7729 31.0474 82.6938 30.8574 83.5124 30.4773C84.3309 30.0973 85.0033 29.5711 85.5296 28.8987C86.085 28.197 86.4651 27.3638 86.6697 26.3991V22.8471C86.4359 21.97 86.0266 21.2099 85.4419 20.5667C84.8572 19.8943 84.1555 19.3827 83.337 19.0319C82.5184 18.6519 81.6121 18.4618 80.6181 18.4618C79.5364 18.4618 78.5424 18.7249 77.6362 19.2512C76.7299 19.7774 75.999 20.5083 75.4436 21.4438C74.9173 22.3793 74.6542 23.4756 74.6542 24.7327C74.6542 25.9021 74.9319 26.9692 75.4874 27.9339C76.0429 28.8987 76.7884 29.6588 77.7239 30.2142C78.6594 30.7697 79.668 31.0474 80.7497 31.0474Z" fill="black"/>
<path d="M53.2012 33.9856V0.0439453H57.2795V33.9856H53.2012ZM61.6647 21.9262L69.9966 33.9856H65.2167L58.9458 24.2065L61.6647 21.9262ZM56.0078 28.1971L55.6131 24.2942L66.62 15.4361L69.1196 17.5848L56.0078 28.1971Z" fill="black"/>
<path d="M43.0613 34.3364C41.775 34.3364 40.5179 34.1171 39.29 33.6786C38.0914 33.2108 37.0974 32.5238 36.3081 31.6175L38.0183 29.2495C38.7784 29.9804 39.5531 30.5358 40.3425 30.9159C41.1611 31.2667 41.965 31.4421 42.7544 31.4421C43.3391 31.4421 43.8799 31.369 44.3769 31.2229C44.8739 31.0767 45.2686 30.8428 45.5609 30.5212C45.8825 30.1704 46.0433 29.7027 46.0433 29.118C46.0433 28.4748 45.824 27.9632 45.3855 27.5831C44.9762 27.2031 44.4354 26.8961 43.763 26.6622C43.1198 26.4284 42.4328 26.2091 41.7019 26.0044C40.2109 25.5075 39.0708 24.8204 38.2814 23.9434C37.4921 23.0663 37.0974 21.9993 37.0974 20.7422C37.0974 19.7774 37.3313 18.8858 37.7991 18.0672C38.296 17.2194 39.0123 16.5324 39.9478 16.0061C40.9126 15.4799 42.0966 15.2168 43.4998 15.2168C44.7569 15.2168 45.8825 15.3776 46.8765 15.6992C47.8705 15.9915 48.806 16.4885 49.683 17.1901L48.0605 19.7336C47.5343 19.1781 46.9057 18.7688 46.1748 18.5057C45.444 18.2426 44.7862 18.0964 44.2015 18.0672C43.7045 18.038 43.2221 18.111 42.7544 18.2865C42.3158 18.4619 41.9504 18.7104 41.6581 19.0319C41.3657 19.3535 41.2195 19.7336 41.2195 20.1721C41.2195 20.786 41.4242 21.283 41.8335 21.6631C42.2427 22.0431 42.769 22.3501 43.4121 22.584C44.0845 22.7886 44.7423 23.0079 45.3855 23.2418C46.2918 23.5049 47.0957 23.8557 47.7974 24.2942C48.499 24.7327 49.0545 25.2736 49.4638 25.9167C49.9023 26.5599 50.1215 27.3639 50.1215 28.3286C50.1215 29.4103 49.8584 30.4189 49.3322 31.3544C48.8352 32.2607 48.0605 32.9916 47.008 33.547C45.9848 34.0733 44.6692 34.3364 43.0613 34.3364Z" fill="black"/>
<path d="M29.4713 15.8306H33.5495V33.9854H29.4713V15.8306ZM29.1643 9.25273C29.1643 8.60956 29.4128 8.06872 29.9098 7.6302C30.436 7.19167 31.0061 6.97241 31.62 6.97241C32.234 6.97241 32.7748 7.19167 33.2426 7.6302C33.7396 8.06872 33.9881 8.60956 33.9881 9.25273C33.9881 9.92513 33.7396 10.4806 33.2426 10.9191C32.7748 11.3284 32.234 11.533 31.62 11.533C31.0061 11.533 30.436 11.3138 29.9098 10.8753C29.4128 10.4367 29.1643 9.8959 29.1643 9.25273Z" fill="black"/>
<path d="M19.2546 15.8305L19.6493 21.0928L19.43 20.3912C19.8978 19.2803 20.5702 18.3447 21.4472 17.5846C22.3535 16.7953 23.289 16.196 24.2538 15.7867C25.2478 15.3482 26.1102 15.1289 26.8411 15.1289L26.6218 19.1633C25.2478 19.0756 24.0345 19.3387 22.9821 19.9527C21.9589 20.5666 21.1403 21.3852 20.5264 22.4084C19.9417 23.4316 19.6493 24.5279 19.6493 25.6973V33.9854H15.6149V15.8305H19.2546Z" fill="black"/>
<path d="M3.1212 33.9855V19.4704H0.00769043V15.8307H3.1212V8.15652C3.1212 5.52538 3.7059 3.50818 4.87529 2.10491C6.07392 0.701636 7.82801 0 10.1376 0C10.7515 0 11.4239 0.0877042 12.1548 0.263113C12.9149 0.438523 13.5727 0.730872 14.1281 1.14016L12.4179 4.07826C12.1548 3.81515 11.8624 3.63974 11.5408 3.55203C11.2192 3.43509 10.8977 3.37662 10.5761 3.37662C9.49439 3.37662 8.6612 3.74206 8.07651 4.47293C7.49181 5.2038 7.19946 6.44628 7.19946 8.20037V15.8307H12.9441V19.4704H7.19946V33.9855H3.1212Z" fill="black"/>
</svg>
